<svg width="270" height="130" viewBox="0 0 270 130" fill="none" xmlns="http://www.w3.org/2000/svg">
<g clip-path="url(#clip0_1773_17943)">
<path d="M0 16C0 7.16344 7.16344 0 16 0H254C262.837 0 270 7.16344 270 16V114C270 122.837 262.837 130 254 130H16C7.16344 130 0 122.837 0 114V16Z" fill="#EAE5FF"/>
<rect x="10" y="58.5" width="11" height="13" fill="#D9D9D9"/>
<path d="M287.5 -12.5C287.5 104.308 190.308 120 73.5 120C-107 130.5 -138 25.3082 -138 -91.5C-138 -208.308 -43.3082 -303 73.5 -303C190.308 -303 287.5 -129.308 287.5 -12.5Z" fill="#F7F5FF"/>
<rect x="102" y="4.89941" width="6" height="6" transform="rotate(-28.8923 102 4.89941)" fill="#FFC571"/>
<rect x="257.615" y="20.0078" width="2.31044" height="2.31044" rx="1.15522" transform="rotate(-28.8923 257.615 20.0078)" fill="#FFC571"/>
<rect x="222" y="7.11621" width="2.31044" height="2.31044" rx="1.15522" transform="rotate(-28.8923 222 7.11621)" fill="#FFC571"/>
<mask id="path-7-outside-1_1773_17943" maskUnits="userSpaceOnUse" x="229.555" y="17.0801" width="22.6483" height="21.2122" fill="black">
<rect fill="white" x="229.555" y="17.0801" width="22.6483" height="21.2122"/>
<path fill-rule="evenodd" clip-rule="evenodd" d="M241.417 19.8012L236.498 21.0719L237.725 25.8189L232 27.2979L233.271 32.2164L238.995 30.7375L240.355 35.9997L245.273 34.729L243.914 29.4668L249.909 27.918L248.638 22.9995L242.643 24.5483L241.417 19.8012Z"/>
</mask>
<path fill-rule="evenodd" clip-rule="evenodd" d="M241.417 19.8012L236.498 21.0719L237.725 25.8189L232 27.2979L233.271 32.2164L238.995 30.7375L240.355 35.9997L245.273 34.729L243.914 29.4668L249.909 27.918L248.638 22.9995L242.643 24.5483L241.417 19.8012Z" fill="#EA9FBA"/>
<path d="M236.498 21.0719L236.373 20.5877L235.889 20.7128L236.014 21.1969L236.498 21.0719ZM241.417 19.8012L241.901 19.6761L241.776 19.192L241.292 19.3171L241.417 19.8012ZM237.725 25.8189L237.85 26.303L238.334 26.178L238.209 25.6939L237.725 25.8189ZM232 27.2979L231.875 26.8138L231.391 26.9388L231.516 27.4229L232 27.2979ZM233.271 32.2164L232.787 32.3415L232.912 32.8256L233.396 32.7005L233.271 32.2164ZM238.995 30.7375L239.479 30.6124L239.354 30.1283L238.87 30.2533L238.995 30.7375ZM240.355 35.9997L239.871 36.1248L239.996 36.6089L240.48 36.4838L240.355 35.9997ZM245.273 34.729L245.398 35.2131L245.882 35.0881L245.757 34.604L245.273 34.729ZM243.914 29.4668L243.789 28.9827L243.305 29.1077L243.43 29.5918L243.914 29.4668ZM249.909 27.918L250.034 28.4021L250.518 28.2771L250.393 27.793L249.909 27.918ZM248.638 22.9995L249.122 22.8744L248.997 22.3903L248.513 22.5154L248.638 22.9995ZM242.643 24.5483L242.159 24.6733L242.284 25.1574L242.768 25.0324L242.643 24.5483ZM236.623 21.556L241.542 20.2853L241.292 19.3171L236.373 20.5877L236.623 21.556ZM238.209 25.6939L236.982 20.9468L236.014 21.1969L237.24 25.944L238.209 25.6939ZM232.125 27.782L237.85 26.303L237.6 25.3348L231.875 26.8138L232.125 27.782ZM233.755 32.0913L232.484 27.1728L231.516 27.4229L232.787 32.3415L233.755 32.0913ZM238.87 30.2533L233.146 31.7323L233.396 32.7005L239.12 31.2216L238.87 30.2533ZM240.839 35.8746L239.479 30.6124L238.511 30.8625L239.871 36.1248L240.839 35.8746ZM245.148 34.2449L240.23 35.5156L240.48 36.4838L245.398 35.2131L245.148 34.2449ZM243.43 29.5918L244.789 34.8541L245.757 34.604L244.398 29.3417L243.43 29.5918ZM249.784 27.4339L243.789 28.9827L244.039 29.9509L250.034 28.4021L249.784 27.4339ZM248.154 23.1246L249.424 28.0431L250.393 27.793L249.122 22.8744L248.154 23.1246ZM242.768 25.0324L248.763 23.4836L248.513 22.5154L242.518 24.0642L242.768 25.0324ZM240.933 19.9262L242.159 24.6733L243.127 24.4232L241.901 19.6761L240.933 19.9262Z" fill="white" mask="url(#path-7-outside-1_1773_17943)"/>
</g>
<defs>
<clipPath id="clip0_1773_17943">
<path d="M0 16C0 7.16344 7.16344 0 16 0H254C262.837 0 270 7.16344 270 16V114C270 122.837 262.837 130 254 130H16C7.16344 130 0 122.837 0 114V16Z" fill="white"/>
</clipPath>
</defs>
</svg>
