<svg width="32" height="33" viewBox="0 0 32 33" fill="none" xmlns="http://www.w3.org/2000/svg">
<rect y="0.5" width="32" height="32" rx="4" fill="#E2E8F0"/>
<path d="M13.354 25.5C14.0591 26.1224 14.9853 26.5 15.9998 26.5C17.0142 26.5 17.9405 26.1224 18.6456 25.5M21.9998 12.5C21.9998 10.9087 21.3676 9.38258 20.2424 8.25736C19.1172 7.13214 17.5911 6.5 15.9998 6.5C14.4085 6.5 12.8824 7.13214 11.7571 8.25736C10.6319 9.38258 9.99977 10.9087 9.99977 12.5C9.99977 15.5902 9.22024 17.706 8.34944 19.1054C7.6149 20.2859 7.24763 20.8761 7.2611 21.0408C7.27601 21.2231 7.31463 21.2926 7.46155 21.4016C7.59423 21.5 8.19237 21.5 9.38863 21.5H22.6109C23.8072 21.5 24.4053 21.5 24.538 21.4016C24.6849 21.2926 24.7235 21.2231 24.7384 21.0408C24.7519 20.8761 24.3846 20.2859 23.6501 19.1054C22.7793 17.706 21.9998 15.5902 21.9998 12.5Z" stroke="black" stroke-width="1.5" stroke-linecap="round" stroke-linejoin="round"/>
<circle cx="21.3013" cy="7.8013" r="3.8013" fill="#2D3748" stroke="#E2E8F0"/>
</svg>
